<svg width="2500" height="675" viewBox="0 0 2500 675" xmlns="http://www.w3.org/2000/svg" xmlns:xlink="http://www.w3.org/1999/xlink"><defs><path id="a" d="M.46 634.616l73.72-9.144 140.175-7.373 324.066-12.653 98.907-15.25 108.509-6.188 130.749-25.901 138.679-57.62 134.6-17.56 70.872 11.602 131.096-15.974 68.19-36.318 342.664-165.354 125.391-26.536h81.596l131.789-42.24 134.645-18.39 138.995-25.057 64.872-69.428 69.631-95.23v680.772H.46z"/></defs><g fill="none" fill-rule="evenodd"><text font-family="HelveticaNeue-Medium, Helvetica Neue" font-size="18" font-weight="400" fill="#0F9F4F" transform="translate(-6 -3)"><tspan x="72.659" y="572">1/14</tspan></text><text font-family="HelveticaNeue-Medium, Helvetica Neue" font-size="18" font-weight="400" fill="#0F9F4F" transform="translate(-6 -3)"><tspan x="550.457" y="541">7/14</tspan></text><text font-family="HelveticaNeue-Medium, Helvetica Neue" font-size="18" font-weight="400" fill="#0F9F4F" transform="translate(-6 -3)"><tspan x="1051.562" y="434">4/15</tspan></text><text font-family="HelveticaNeue-Medium, Helvetica Neue" font-size="18" font-weight="400" fill="#0F9F4F" transform="translate(-6 -3)"><tspan x="1713.875" y="232">4/16</tspan></text><text font-family="HelveticaNeue-Medium, Helvetica Neue" font-size="18" font-weight="400" fill="#0F9F4F" transform="translate(-6 -3)"><tspan x="2350.939" y="95">1/17</tspan></text><g transform="translate(-6 -3)"><use fill-opacity=".1" fill="#29EB7F" xlink:href="#a"/><path stroke="#0F9F4F" stroke-width="3" d="M1.96 635.941v43.333h2506.146V4.595l-66.92 91.522-.115.139-65.212 69.791-.49.089-139.058 25.067-134.515 18.372-131.887 42.272h-81.674l-125.06 26.465-342.448 165.249-68.436 36.449-131.585 16.034-70.866-11.6-134.184 17.504-138.633 57.601-130.895 25.93-.206.027-108.436 6.183-98.837 15.24-.17.016-324.045 12.652-140.123 7.37L1.96 635.94z"/></g><g transform="translate(77 39)"><circle stroke="#0F9F4F" stroke-width="3" cx="2178" cy="36" r="36"/><circle stroke="#0F9F4F" stroke-width="3" fill="#FFF" cx="2285.5" cy="124.5" r="7.5"/><circle stroke="#0F9F4F" stroke-width="3" fill="#FFF" cx="1648.5" cy="250.5" r="7.5"/><circle stroke="#0F9F4F" stroke-width="3" fill="#FFF" cx="986.5" cy="452.5" r="7.5"/><circle stroke="#0F9F4F" stroke-width="3" fill="#FFF" cx="484.5" cy="560.5" r="7.5"/><circle stroke="#0F9F4F" stroke-width="3" fill="#FFF" cx="7.5" cy="583.5" r="7.5"/><text font-family="HelveticaNeue-Medium, Helvetica Neue" font-size="18" font-weight="400" fill="#0F9F4F"><tspan x="2157.323" y="32">502K</tspan> <tspan x="2154.488" y="54">Users</tspan></text></g></g></svg>
